<svg width="1074" height="348" viewBox="0 0 1074 348" fill="none" xmlns="http://www.w3.org/2000/svg">
<path d="M213.67 347C213.03 347 212.603 346.707 212.39 346.12L196.07 295.88C195.856 295.027 196.15 294.6 196.95 294.6H208.95C209.643 294.6 210.07 294.893 210.23 295.48L218.07 323.96C218.603 325.933 219.083 327.907 219.51 329.88C219.936 331.853 220.336 333.827 220.71 335.8H220.95C221.323 333.773 221.75 331.773 222.23 329.8C222.71 327.827 223.216 325.827 223.75 323.8L231.51 295.56C231.67 294.92 232.096 294.6 232.79 294.6H244.71C245.563 294.6 245.856 295.027 245.59 295.88L229.19 346.12C229.03 346.707 228.603 347 227.91 347H213.67ZM242.71 347C241.857 347 241.564 346.573 241.83 345.72L258.47 295.48C258.684 294.893 259.11 294.6 259.75 294.6H273.99C274.63 294.6 275.057 294.893 275.27 295.48L291.99 345.72C292.097 346.093 292.07 346.413 291.91 346.68C291.804 346.893 291.537 347 291.11 347H279.11C278.417 347 277.99 346.707 277.83 346.12L269.75 317.16C269.217 315.24 268.71 313.32 268.23 311.4C267.75 309.48 267.297 307.587 266.87 305.72H266.71C266.284 307.64 265.83 309.56 265.35 311.48C264.87 313.4 264.364 315.32 263.83 317.24L255.91 346.04C255.75 346.68 255.324 347 254.63 347H242.71ZM256.31 337.64L258.39 327.32H274.95L277.11 337.64H256.31ZM296.558 347C296.238 347 295.971 346.893 295.758 346.68C295.544 346.467 295.438 346.2 295.438 345.88L296.558 295.72C296.558 294.973 296.904 294.6 297.598 294.6H310.318C310.904 294.6 311.304 294.867 311.518 295.4L323.998 321.64L336.478 295.4C336.744 294.867 337.171 294.6 337.758 294.6H350.398C351.144 294.6 351.518 294.973 351.518 295.72L352.558 345.88C352.558 346.2 352.451 346.467 352.238 346.68C352.024 346.893 351.784 347 351.518 347H340.798C340.051 347 339.678 346.627 339.678 345.88L339.198 327.96C339.144 325.72 339.171 323.373 339.278 320.92C339.384 318.413 339.491 316.067 339.598 313.88H339.278C338.371 316.013 337.384 318.253 336.318 320.6C335.251 322.947 334.131 325.213 332.958 327.4L325.598 341.64C325.331 342.173 324.878 342.44 324.238 342.44H323.758C323.118 342.44 322.691 342.173 322.478 341.64L315.038 327.32C313.971 325.187 312.878 322.947 311.758 320.6C310.691 318.2 309.704 315.96 308.798 313.88H308.478C308.584 316.12 308.691 318.467 308.798 320.92C308.904 323.373 308.931 325.72 308.878 327.96L308.398 345.88C308.398 346.627 308.024 347 307.278 347H296.558ZM382.691 347.96C375.224 347.96 369.571 346.2 365.731 342.68C361.891 339.16 359.971 333.96 359.971 327.08V314.52C359.971 307.587 361.891 302.387 365.731 298.92C369.571 295.4 375.224 293.64 382.691 293.64C390.158 293.64 395.811 295.4 399.651 298.92C403.544 302.387 405.491 307.587 405.491 314.52V327.08C405.491 333.96 403.544 339.16 399.651 342.68C395.811 346.2 390.158 347.96 382.691 347.96ZM382.691 336.44C385.944 336.44 388.344 335.56 389.891 333.8C391.491 332.04 392.291 329.507 392.291 326.2V315.4C392.291 312.093 391.491 309.56 389.891 307.8C388.344 306.04 385.944 305.16 382.691 305.16C379.491 305.16 377.091 306.04 375.491 307.8C373.944 309.56 373.171 312.093 373.171 315.4V326.2C373.171 329.507 373.944 332.04 375.491 333.8C377.091 335.56 379.491 336.44 382.691 336.44ZM430.877 347.96C426.077 347.96 422.13 347.373 419.037 346.2C415.997 344.973 413.81 343.133 412.477 340.68C411.197 338.227 410.717 335.16 411.037 331.48C411.143 330.68 411.543 330.28 412.237 330.28H422.957C423.703 330.28 424.05 330.627 423.997 331.32C423.943 333.08 424.503 334.44 425.677 335.4C426.903 336.307 428.77 336.76 431.277 336.76C433.783 336.76 435.597 336.44 436.717 335.8C437.89 335.16 438.477 334.147 438.477 332.76C438.477 332.173 438.343 331.64 438.077 331.16C437.81 330.627 437.33 330.147 436.637 329.72C435.943 329.24 434.983 328.76 433.757 328.28L422.317 323.24C419.543 322.013 417.383 320.707 415.837 319.32C414.29 317.88 413.197 316.28 412.557 314.52C411.917 312.707 411.597 310.627 411.597 308.28C411.65 303.64 413.25 300.04 416.397 297.48C419.543 294.92 424.263 293.64 430.557 293.64C435.25 293.64 439.143 294.253 442.237 295.48C445.33 296.653 447.57 298.413 448.957 300.76C450.397 303.053 450.93 306.013 450.557 309.64C450.503 310.547 450.13 311 449.437 311H438.717C438.343 311 438.05 310.893 437.837 310.68C437.677 310.413 437.623 310.067 437.677 309.64C437.783 308.2 437.223 307 435.997 306.04C434.823 305.08 433.117 304.6 430.877 304.6C428.85 304.6 427.33 304.947 426.317 305.64C425.303 306.28 424.797 307.24 424.797 308.52C424.797 309.16 424.957 309.747 425.277 310.28C425.597 310.76 426.103 311.24 426.797 311.72C427.49 312.147 428.423 312.627 429.597 313.16L440.957 318.04C443.677 319.213 445.837 320.493 447.437 321.88C449.037 323.267 450.157 324.893 450.797 326.76C451.437 328.573 451.73 330.68 451.677 333.08C451.623 337.987 449.97 341.693 446.717 344.2C443.463 346.707 438.183 347.96 430.877 347.96ZM476.035 347C475.289 347 474.915 346.627 474.915 345.88V295.72C474.915 294.973 475.289 294.6 476.035 294.6H509.315C510.009 294.6 510.355 294.973 510.355 295.72V304.92C510.355 305.667 510.009 306.04 509.315 306.04H488.115V315.24H507.395C508.089 315.24 508.435 315.613 508.435 316.36V324.92C508.435 325.667 508.089 326.04 507.395 326.04H488.115V335.56H509.315C510.009 335.56 510.355 335.933 510.355 336.68V345.88C510.355 346.627 510.009 347 509.315 347H476.035ZM519.942 347C519.195 347 518.822 346.627 518.822 345.88V295.72C518.822 294.973 519.195 294.6 519.942 294.6H533.942C534.528 294.6 534.955 294.867 535.222 295.4L545.302 315.48C546.048 316.973 546.822 318.573 547.622 320.28C548.422 321.987 549.142 323.667 549.782 325.32C550.475 326.973 551.035 328.44 551.462 329.72H551.702C551.595 328.707 551.488 327.56 551.382 326.28C551.328 325 551.248 323.693 551.142 322.36C551.088 321.027 551.035 319.72 550.982 318.44C550.982 317.16 550.982 316.013 550.982 315V295.72C550.982 294.973 551.328 294.6 552.022 294.6H562.582C563.328 294.6 563.702 294.973 563.702 295.72V345.88C563.702 346.627 563.328 347 562.582 347H548.582C548.048 347 547.622 346.733 547.302 346.2L537.702 327.08C536.955 325.64 536.208 324.04 535.462 322.28C534.768 320.52 534.075 318.787 533.382 317.08C532.688 315.32 532.048 313.773 531.462 312.44H531.222C531.275 313.56 531.328 314.76 531.382 316.04C531.435 317.32 531.462 318.653 531.462 320.04C531.515 321.373 531.542 322.68 531.542 323.96C531.542 325.24 531.542 326.467 531.542 327.64V345.88C531.542 346.627 531.168 347 530.422 347H519.942ZM610.265 347.96C603.172 347.96 597.625 346.253 593.625 342.84C589.679 339.427 587.705 334.147 587.705 327V314.76C587.705 307.507 589.679 302.173 593.625 298.76C597.625 295.347 603.172 293.64 610.265 293.64C615.439 293.64 619.785 294.44 623.305 296.04C626.825 297.64 629.412 299.907 631.065 302.84C632.719 305.72 633.279 309.133 632.745 313.08C632.692 313.4 632.559 313.667 632.345 313.88C632.185 314.093 631.945 314.2 631.625 314.2H620.585C619.892 314.2 619.545 313.8 619.545 313C619.599 310.6 618.905 308.68 617.465 307.24C616.025 305.747 613.679 305 610.425 305C607.439 305 605.092 305.827 603.385 307.48C601.732 309.08 600.905 311.667 600.905 315.24V326.36C600.905 329.933 601.732 332.547 603.385 334.2C605.092 335.8 607.439 336.6 610.425 336.6C613.839 336.6 616.239 335.827 617.625 334.28C619.012 332.68 619.652 330.787 619.545 328.6C619.545 327.8 619.892 327.4 620.585 327.4H631.545C632.239 327.4 632.639 327.773 632.745 328.52C633.119 332.467 632.452 335.907 630.745 338.84C629.092 341.72 626.532 343.96 623.065 345.56C619.599 347.16 615.332 347.96 610.265 347.96ZM636.07 347C635.216 347 634.923 346.573 635.19 345.72L651.83 295.48C652.043 294.893 652.47 294.6 653.11 294.6H667.35C667.99 294.6 668.416 294.893 668.63 295.48L685.35 345.72C685.456 346.093 685.43 346.413 685.27 346.68C685.163 346.893 684.896 347 684.47 347H672.47C671.776 347 671.35 346.707 671.19 346.12L663.11 317.16C662.576 315.24 662.07 313.32 661.59 311.4C661.11 309.48 660.656 307.587 660.23 305.72H660.07C659.643 307.64 659.19 309.56 658.71 311.48C658.23 313.4 657.723 315.32 657.19 317.24L649.27 346.04C649.11 346.68 648.683 347 647.99 347H636.07ZM649.67 337.64L651.75 327.32H668.31L670.47 337.64H649.67ZM689.917 347C689.597 347 689.331 346.893 689.117 346.68C688.904 346.467 688.797 346.2 688.797 345.88L689.917 295.72C689.917 294.973 690.264 294.6 690.957 294.6H703.677C704.264 294.6 704.664 294.867 704.877 295.4L717.357 321.64L729.837 295.4C730.104 294.867 730.531 294.6 731.117 294.6H743.757C744.504 294.6 744.877 294.973 744.877 295.72L745.917 345.88C745.917 346.2 745.811 346.467 745.597 346.68C745.384 346.893 745.144 347 744.877 347H734.157C733.411 347 733.037 346.627 733.037 345.88L732.557 327.96C732.504 325.72 732.531 323.373 732.637 320.92C732.744 318.413 732.851 316.067 732.957 313.88H732.637C731.731 316.013 730.744 318.253 729.677 320.6C728.611 322.947 727.491 325.213 726.317 327.4L718.957 341.64C718.691 342.173 718.237 342.44 717.597 342.44H717.117C716.477 342.44 716.051 342.173 715.837 341.64L708.397 327.32C707.331 325.187 706.237 322.947 705.117 320.6C704.051 318.2 703.064 315.96 702.157 313.88H701.837C701.944 316.12 702.051 318.467 702.157 320.92C702.264 323.373 702.291 325.72 702.237 327.96L701.757 345.88C701.757 346.627 701.384 347 700.637 347H689.917ZM755.41 347C754.664 347 754.29 346.627 754.29 345.88V295.72C754.29 294.973 754.664 294.6 755.41 294.6H766.37C767.117 294.6 767.49 294.973 767.49 295.72V345.88C767.49 346.627 767.117 347 766.37 347H755.41ZM778.067 347C777.32 347 776.947 346.627 776.947 345.88V295.72C776.947 294.973 777.32 294.6 778.067 294.6H792.067C792.653 294.6 793.08 294.867 793.347 295.4L803.427 315.48C804.173 316.973 804.947 318.573 805.747 320.28C806.547 321.987 807.267 323.667 807.907 325.32C808.6 326.973 809.16 328.44 809.587 329.72H809.827C809.72 328.707 809.613 327.56 809.507 326.28C809.453 325 809.373 323.693 809.267 322.36C809.213 321.027 809.16 319.72 809.107 318.44C809.107 317.16 809.107 316.013 809.107 315V295.72C809.107 294.973 809.453 294.6 810.147 294.6H820.707C821.453 294.6 821.827 294.973 821.827 295.72V345.88C821.827 346.627 821.453 347 820.707 347H806.707C806.173 347 805.747 346.733 805.427 346.2L795.827 327.08C795.08 325.64 794.333 324.04 793.587 322.28C792.893 320.52 792.2 318.787 791.507 317.08C790.813 315.32 790.173 313.773 789.587 312.44H789.347C789.4 313.56 789.453 314.76 789.507 316.04C789.56 317.32 789.587 318.653 789.587 320.04C789.64 321.373 789.667 322.68 789.667 323.96C789.667 325.24 789.667 326.467 789.667 327.64V345.88C789.667 346.627 789.293 347 788.547 347H778.067ZM853.003 347.96C845.537 347.96 839.883 346.2 836.043 342.68C832.203 339.16 830.283 333.96 830.283 327.08V314.52C830.283 307.587 832.203 302.387 836.043 298.92C839.883 295.4 845.537 293.64 853.003 293.64C860.47 293.64 866.123 295.4 869.963 298.92C873.857 302.387 875.803 307.587 875.803 314.52V327.08C875.803 333.96 873.857 339.16 869.963 342.68C866.123 346.2 860.47 347.96 853.003 347.96ZM853.003 336.44C856.257 336.44 858.657 335.56 860.203 333.8C861.803 332.04 862.603 329.507 862.603 326.2V315.4C862.603 312.093 861.803 309.56 860.203 307.8C858.657 306.04 856.257 305.16 853.003 305.16C849.803 305.16 847.403 306.04 845.803 307.8C844.257 309.56 843.483 312.093 843.483 315.4V326.2C843.483 329.507 844.257 332.04 845.803 333.8C847.403 335.56 849.803 336.44 853.003 336.44Z" fill="#2B2B2A"/>
<rect x="1" y="212" width="828" height="20" rx="10" fill="url(#paint0_linear_8_475)"/>
<rect x="1" y="212" width="1072" height="20" rx="10" stroke="url(#paint1_linear_8_475)" stroke-width="2"/>
<path d="M282.248 1.728C282.248 1.728 283.699 1.55733 286.6 1.21599C289.501 0.874659 292.915 1.30133 296.84 2.49599C300.936 3.69066 304.435 6.592 307.336 11.2C309.213 14.1013 311.091 17.6 312.968 21.696C315.016 25.6213 316.808 29.5467 318.344 33.472C320.051 37.3973 321.416 40.64 322.44 43.2C323.464 45.76 323.976 47.04 323.976 47.04L339.336 9.66399C339.336 9.66399 339.933 8.89599 341.128 7.36C342.493 5.824 344.627 4.37333 347.528 3.008C350.6 1.64266 354.781 1.13066 360.072 1.472C375.603 2.496 381.32 7.36 377.224 16.064C376.371 17.7707 374.835 20.928 372.616 25.536C370.397 29.9733 367.837 35.008 364.936 40.64C362.205 46.1013 359.475 51.4773 356.744 56.768C354.184 62.0587 352.051 66.4107 350.344 69.824C348.637 73.2373 347.784 74.944 347.784 74.944L349.064 137.408C349.064 137.408 349.064 138.176 349.064 139.712C349.235 141.077 348.893 142.784 348.04 144.832C347.187 146.709 345.395 148.416 342.664 149.952C339.933 151.317 335.752 152 330.12 152C322.611 152 317.064 150.976 313.48 148.928C310.067 146.88 307.933 144.661 307.08 142.272C306.227 139.712 305.8 137.835 305.8 136.64C305.8 135.957 305.715 133.397 305.544 128.96C305.544 124.523 305.544 119.317 305.544 113.344C305.544 107.371 305.459 101.397 305.288 95.424C305.288 89.4507 305.203 84.5013 305.032 80.576C305.032 76.6507 305.032 74.688 305.032 74.688L270.984 20.416C270.984 20.416 270.472 19.648 269.448 18.112C268.424 16.576 267.741 14.784 267.4 12.736C267.229 10.5173 268.168 8.38399 270.216 6.336C272.264 4.28799 276.275 2.75199 282.248 1.728ZM405.744 13.76C405.573 13.76 405.829 12.8213 406.512 10.944C407.365 8.896 409.243 6.93333 412.144 5.056C415.045 3.17866 419.824 2.15466 426.48 1.98399C432.453 1.81333 436.976 2.58133 440.048 4.28799C443.12 5.82399 445.168 7.36 446.192 8.896C447.387 10.432 447.984 11.2 447.984 11.2C447.984 11.2 448.923 13.4187 450.8 17.856C452.677 22.2933 455.237 28.1813 458.48 35.52C461.723 42.688 465.307 50.7093 469.232 59.584C473.157 68.4587 477.083 77.504 481.008 86.72C485.104 95.7653 488.859 104.299 492.272 112.32C495.856 120.171 498.843 126.827 501.232 132.288C503.621 137.579 505.157 140.907 505.84 142.272C507.376 145.515 508.229 147.819 508.4 149.184C508.571 150.549 508.485 151.488 508.144 152C507.973 152.341 507.888 152.597 507.888 152.768C506.693 155.157 504.304 157.205 500.72 158.912C497.307 160.789 493.125 161.813 488.176 161.984C481.349 162.155 476.4 161.387 473.328 159.68C470.256 158.144 468.208 156.523 467.184 154.816C466.331 153.28 465.989 152.597 466.16 152.768C466.16 152.768 465.221 150.805 463.344 146.88C461.637 142.955 459.589 138.261 457.2 132.8C454.811 127.168 452.592 122.048 450.544 117.44C450.544 117.44 449.349 117.44 446.96 117.44C444.741 117.44 442.096 117.44 439.024 117.44C435.952 117.44 433.221 117.44 430.832 117.44C428.613 117.44 427.504 117.44 427.504 117.44C426.821 119.829 426.139 122.816 425.456 126.4C424.773 129.813 424.176 132.885 423.664 135.616C423.152 138.347 422.896 139.712 422.896 139.712C422.896 139.712 422.469 140.736 421.616 142.784C420.933 144.832 418.971 146.88 415.728 148.928C412.485 150.976 407.109 152 399.6 152C393.968 152 389.701 151.403 386.8 150.208C384.069 148.843 382.192 147.307 381.168 145.6C380.315 143.893 379.888 142.443 379.888 141.248C379.888 139.883 379.888 139.2 379.888 139.2C380.229 137.493 380.912 133.995 381.936 128.704C383.131 123.243 384.496 116.757 386.032 109.248C387.739 101.568 389.445 93.4613 391.152 84.928C393.029 76.3947 394.821 67.9467 396.528 59.584C398.235 51.2213 399.771 43.6267 401.136 36.8C402.501 29.8027 403.611 24.256 404.464 20.16C405.317 15.8933 405.744 13.76 405.744 13.76ZM432.624 54.208C432.453 54.8907 432.283 56.256 432.112 58.304L431.088 65.472C430.747 69.3973 430.32 73.5787 429.808 78.016C429.296 82.4533 428.784 86.6347 428.272 90.56C427.931 92.608 427.675 93.888 427.504 94.4H430.832C432.88 94.4 435.099 94.3147 437.488 94.144C439.877 93.9733 442.011 93.888 443.888 93.888C443.205 92.5227 442.608 90.816 442.096 88.768C441.755 86.5493 441.328 84.5013 440.816 82.624C439.792 78.6987 438.597 74.6027 437.232 70.336C436.037 66.0693 434.928 62.0587 433.904 58.304C433.392 56.256 432.965 54.8907 432.624 54.208ZM570.636 26.816C570.636 26.816 569.015 26.9013 565.772 27.072C562.7 27.072 559.031 26.9013 554.764 26.56C550.668 26.2187 546.999 25.3653 543.756 24C540.684 22.464 539.063 20.16 538.892 17.088C538.721 14.016 540.172 11.6267 543.244 9.92C546.316 8.04266 549.815 6.67732 553.74 5.82399C557.836 4.79999 561.42 4.20266 564.492 4.032C567.564 3.69066 569.1 3.51999 569.1 3.51999C569.1 3.51999 570.38 3.43466 572.94 3.26399C575.5 2.92266 578.743 2.83733 582.668 3.008C586.593 3.17866 590.519 3.94666 594.444 5.312C598.54 6.67733 602.039 8.896 604.94 11.968C608.012 15.04 609.889 19.392 610.572 25.024C611.255 30.656 611.937 37.3973 612.62 45.248C613.303 52.928 613.9 60.864 614.412 69.056C615.095 77.248 615.607 84.8427 615.948 91.84C616.46 98.8373 616.801 104.555 616.972 108.992C617.313 113.429 617.484 115.648 617.484 115.648C617.484 115.648 617.484 116.928 617.484 119.488C617.655 121.877 617.313 124.864 616.46 128.448C615.607 132.032 613.815 135.616 611.084 139.2C608.353 142.784 604.172 145.856 598.54 148.416C593.079 150.805 585.74 152 576.524 152C561.164 152 549.217 150.464 540.684 147.392C532.151 144.149 526.092 139.541 522.508 133.568C518.924 127.595 516.876 120.512 516.364 112.32C516.023 107.029 516.876 102.933 518.924 100.032C520.972 97.1307 523.361 95.0827 526.092 93.888C528.993 92.5227 531.468 91.7547 533.516 91.584C535.735 91.2427 536.844 91.072 536.844 91.072C536.844 91.072 537.783 91.072 539.66 91.072C541.537 91.072 543.756 91.584 546.316 92.608C548.876 93.4613 551.265 95.2533 553.484 97.984C555.703 100.544 557.153 104.469 557.836 109.76C558.689 116.757 560.14 121.707 562.188 124.608C564.236 127.509 566.113 129.301 567.82 129.984C569.697 130.496 570.636 130.752 570.636 130.752C570.636 130.752 571.489 130.752 573.196 130.752C574.903 130.581 576.524 129.387 578.06 127.168C579.596 124.949 580.108 120.768 579.596 114.624C579.084 108.48 578.316 100.715 577.292 91.328C576.439 81.9413 575.415 71.7013 574.22 60.608C573.025 49.5147 571.831 38.2507 570.636 26.816ZM635.818 138.944C635.306 133.141 634.965 125.888 634.794 117.184C634.623 108.309 634.538 98.8373 634.538 88.768C634.538 78.6987 634.623 68.9707 634.794 59.584C635.135 50.0267 635.477 41.5787 635.818 34.24C636.159 26.9013 636.501 21.6107 636.842 18.368C637.354 14.272 638.805 11.2 641.194 9.15199C643.583 6.93332 646.229 5.39732 649.13 4.54399C652.202 3.69066 654.762 3.26399 656.81 3.26399C659.029 3.09333 660.138 3.008 660.138 3.008C660.138 3.008 661.162 3.17866 663.21 3.51999C665.429 3.69065 667.818 4.11732 670.378 4.79999C672.938 5.48266 674.73 6.67732 675.754 8.38399C677.973 11.7973 678.997 15.1253 678.826 18.368C678.826 21.44 678.655 25.4507 678.314 30.4C677.29 43.2 676.693 55.744 676.522 68.032C676.351 80.32 676.351 91.4987 676.522 101.568C676.693 111.637 676.863 119.659 677.034 125.632C677.375 131.605 677.546 134.592 677.546 134.592C677.546 134.592 677.461 135.531 677.29 137.408C677.29 139.115 676.778 141.077 675.754 143.296C674.73 145.515 672.767 147.563 669.866 149.44C666.965 151.147 662.698 152 657.066 152C651.434 152 647.082 151.403 644.01 150.208C641.109 148.843 639.061 147.307 637.866 145.6C636.842 143.723 636.245 142.187 636.074 140.992C635.903 139.627 635.818 138.944 635.818 138.944ZM708.116 135.36C707.433 125.291 706.665 114.795 705.812 103.872C704.959 92.7787 704.105 82.1973 703.252 72.128C702.569 62.0587 701.972 53.5253 701.46 46.528C700.948 39.36 700.521 34.752 700.18 32.704C699.668 28.7787 699.839 26.1333 700.692 24.768C701.716 23.232 702.228 22.464 702.228 22.464C702.228 22.464 701.631 21.8667 700.436 20.672C699.241 19.3067 698.644 17.856 698.644 16.32C698.644 13.5893 700.265 11.3707 703.508 9.66399C706.921 7.95732 710.761 6.67732 715.028 5.82399C719.295 4.97066 723.049 4.37333 726.292 4.032C729.705 3.69066 731.412 3.51999 731.412 3.51999C731.412 3.51999 733.119 3.43466 736.532 3.26399C739.945 3.09333 744.297 3.26399 749.588 3.77599C755.049 4.28799 760.852 5.65333 766.996 7.87199C773.311 9.92 779.284 13.248 784.916 17.856C790.719 22.464 795.583 28.7787 799.508 36.8C803.433 44.6507 805.823 54.72 806.676 67.008C807.7 81.5147 807.017 93.7173 804.628 103.616C802.409 113.515 798.996 121.621 794.388 127.936C789.951 134.08 784.831 138.859 779.028 142.272C773.225 145.685 767.167 148.075 760.852 149.44C754.708 150.635 748.82 151.403 743.188 151.744C737.727 151.915 732.948 152 728.852 152C722.879 152 718.356 151.147 715.284 149.44C712.383 147.733 710.42 145.856 709.396 143.808C708.543 141.589 708.116 139.627 708.116 137.92C708.116 136.213 708.116 135.36 708.116 135.36ZM735.508 26.56L746.772 130.24C746.772 130.24 747.54 130.155 749.076 129.984C750.612 129.813 752.489 129.045 754.708 127.68C757.097 126.315 759.316 123.84 761.364 120.256C763.583 116.672 765.289 111.637 766.484 105.152C767.679 98.496 767.935 89.8773 767.252 79.296C766.569 65.984 765.119 55.6587 762.9 48.32C760.852 40.8107 758.292 35.4347 755.22 32.192C752.319 28.9493 749.161 27.072 745.748 26.56C742.335 26.048 738.921 26.048 735.508 26.56Z" fill="#2B2B2A"/>
<defs>
<linearGradient id="paint0_linear_8_475" x1="0.999992" y1="259.386" x2="24.0687" y2="82.4157" gradientUnits="userSpaceOnUse">
<stop stop-color="#FAF7F2"/>
<stop offset="0.03125" stop-color="#F0EEF3"/>
<stop offset="0.333333" stop-color="#8F93FF"/>
<stop offset="0.666667" stop-color="#FF8D85"/>
<stop offset="1" stop-color="#94FF9B"/>
</linearGradient>
<linearGradient id="paint1_linear_8_475" x1="0.99999" y1="259.386" x2="18.9389" y2="81.2147" gradientUnits="userSpaceOnUse">
<stop stop-color="#FAF7F2"/>
<stop offset="0.333333" stop-color="#8F93FF"/>
<stop offset="0.666667" stop-color="#FF8D85"/>
<stop offset="1" stop-color="#94FF9B"/>
</linearGradient>
</defs>
</svg>
