<svg width="1500" height="1500" viewBox="0 0 1500 1500" fill="none" xmlns="http://www.w3.org/2000/svg">
<g clip-path="url(#clip0_2_452)">
<rect width="1500" height="1500" rx="750" fill="#2B2B2A"/>
<path d="M401.206 646.55C401.206 646.55 403.19 646.317 407.156 645.85C411.123 645.383 415.79 645.967 421.156 647.6C426.756 649.233 431.54 653.2 435.506 659.5C438.073 663.467 440.64 668.25 443.206 673.85C446.006 679.217 448.456 684.583 450.556 689.95C452.89 695.317 454.756 699.75 456.156 703.25C457.556 706.75 458.256 708.5 458.256 708.5L479.256 657.4C479.256 657.4 480.073 656.35 481.706 654.25C483.573 652.15 486.49 650.167 490.456 648.3C494.656 646.433 500.373 645.733 507.606 646.2C528.84 647.6 536.656 654.25 531.056 666.15C529.89 668.483 527.79 672.8 524.756 679.1C521.723 685.167 518.223 692.05 514.256 699.75C510.523 707.217 506.79 714.567 503.056 721.8C499.556 729.033 496.64 734.983 494.306 739.65C491.973 744.317 490.806 746.65 490.806 746.65L492.556 832.05C492.556 832.05 492.556 833.1 492.556 835.2C492.79 837.067 492.323 839.4 491.156 842.2C489.99 844.767 487.54 847.1 483.806 849.2C480.073 851.067 474.356 852 466.656 852C456.39 852 448.806 850.6 443.906 847.8C439.24 845 436.323 841.967 435.156 838.7C433.99 835.2 433.406 832.633 433.406 831C433.406 830.067 433.29 826.567 433.056 820.5C433.056 814.433 433.056 807.317 433.056 799.15C433.056 790.983 432.94 782.817 432.706 774.65C432.706 766.483 432.59 759.717 432.356 754.35C432.356 748.983 432.356 746.3 432.356 746.3L385.806 672.1C385.806 672.1 385.106 671.05 383.706 668.95C382.306 666.85 381.373 664.4 380.906 661.6C380.673 658.567 381.956 655.65 384.756 652.85C387.556 650.05 393.04 647.95 401.206 646.55ZM570.048 663C569.815 663 570.165 661.717 571.098 659.15C572.265 656.35 574.832 653.667 578.798 651.1C582.765 648.533 589.298 647.133 598.398 646.9C606.565 646.667 612.748 647.717 616.948 650.05C621.148 652.15 623.948 654.25 625.348 656.35C626.982 658.45 627.798 659.5 627.798 659.5C627.798 659.5 629.082 662.533 631.648 668.6C634.215 674.667 637.715 682.717 642.148 692.75C646.582 702.55 651.482 713.517 656.848 725.65C662.215 737.783 667.582 750.15 672.948 762.75C678.548 775.117 683.682 786.783 688.348 797.75C693.248 808.483 697.332 817.583 700.598 825.05C703.865 832.283 705.965 836.833 706.898 838.7C708.998 843.133 710.165 846.283 710.398 848.15C710.632 850.017 710.515 851.3 710.048 852C709.815 852.467 709.698 852.817 709.698 853.05C708.065 856.317 704.798 859.117 699.898 861.45C695.232 864.017 689.515 865.417 682.748 865.65C673.415 865.883 666.648 864.833 662.448 862.5C658.248 860.4 655.448 858.183 654.048 855.85C652.882 853.75 652.415 852.817 652.648 853.05C652.648 853.05 651.365 850.367 648.798 845C646.465 839.633 643.665 833.217 640.398 825.75C637.132 818.05 634.098 811.05 631.298 804.75C631.298 804.75 629.665 804.75 626.398 804.75C623.365 804.75 619.748 804.75 615.548 804.75C611.348 804.75 607.615 804.75 604.348 804.75C601.315 804.75 599.798 804.75 599.798 804.75C598.865 808.017 597.932 812.1 596.998 817C596.065 821.667 595.248 825.867 594.548 829.6C593.848 833.333 593.498 835.2 593.498 835.2C593.498 835.2 592.915 836.6 591.748 839.4C590.815 842.2 588.132 845 583.698 847.8C579.265 850.6 571.915 852 561.648 852C553.948 852 548.115 851.183 544.148 849.55C540.415 847.683 537.848 845.583 536.448 843.25C535.282 840.917 534.698 838.933 534.698 837.3C534.698 835.433 534.698 834.5 534.698 834.5C535.165 832.167 536.098 827.383 537.498 820.15C539.132 812.683 540.998 803.817 543.098 793.55C545.432 783.05 547.765 771.967 550.098 760.3C552.665 748.633 555.115 737.083 557.448 725.65C559.782 714.217 561.882 703.833 563.748 694.5C565.615 684.933 567.132 677.35 568.298 671.75C569.465 665.917 570.048 663 570.048 663ZM606.798 718.3C606.565 719.233 606.332 721.1 606.098 723.9L604.698 733.7C604.232 739.067 603.648 744.783 602.948 750.85C602.248 756.917 601.548 762.633 600.848 768C600.382 770.8 600.032 772.55 599.798 773.25H604.348C607.148 773.25 610.182 773.133 613.448 772.9C616.715 772.667 619.632 772.55 622.198 772.55C621.265 770.683 620.448 768.35 619.748 765.55C619.282 762.517 618.698 759.717 617.998 757.15C616.598 751.783 614.965 746.183 613.098 740.35C611.465 734.517 609.948 729.033 608.548 723.9C607.848 721.1 607.265 719.233 606.798 718.3ZM795.487 680.85C795.487 680.85 793.27 680.967 788.837 681.2C784.637 681.2 779.62 680.967 773.787 680.5C768.187 680.033 763.17 678.867 758.737 677C754.537 674.9 752.32 671.75 752.087 667.55C751.853 663.35 753.837 660.083 758.037 657.75C762.237 655.183 767.02 653.317 772.387 652.15C777.987 650.75 782.887 649.933 787.087 649.7C791.287 649.233 793.387 649 793.387 649C793.387 649 795.137 648.883 798.637 648.65C802.137 648.183 806.57 648.067 811.937 648.3C817.303 648.533 822.67 649.583 828.037 651.45C833.637 653.317 838.42 656.35 842.387 660.55C846.587 664.75 849.153 670.7 850.087 678.4C851.02 686.1 851.953 695.317 852.887 706.05C853.82 716.55 854.637 727.4 855.337 738.6C856.27 749.8 856.97 760.183 857.437 769.75C858.137 779.317 858.603 787.133 858.837 793.2C859.303 799.267 859.537 802.3 859.537 802.3C859.537 802.3 859.537 804.05 859.537 807.55C859.77 810.817 859.303 814.9 858.137 819.8C856.97 824.7 854.52 829.6 850.787 834.5C847.053 839.4 841.337 843.6 833.637 847.1C826.17 850.367 816.137 852 803.537 852C782.537 852 766.203 849.9 754.537 845.7C742.87 841.267 734.587 834.967 729.687 826.8C724.787 818.633 721.987 808.95 721.287 797.75C720.82 790.517 721.987 784.917 724.787 780.95C727.587 776.983 730.853 774.183 734.587 772.55C738.553 770.683 741.937 769.633 744.737 769.4C747.77 768.933 749.287 768.7 749.287 768.7C749.287 768.7 750.57 768.7 753.137 768.7C755.703 768.7 758.737 769.4 762.237 770.8C765.737 771.967 769.003 774.417 772.037 778.15C775.07 781.65 777.053 787.017 777.987 794.25C779.153 803.817 781.137 810.583 783.937 814.55C786.737 818.517 789.303 820.967 791.637 821.9C794.203 822.6 795.487 822.95 795.487 822.95C795.487 822.95 796.653 822.95 798.987 822.95C801.32 822.717 803.537 821.083 805.637 818.05C807.737 815.017 808.437 809.3 807.737 800.9C807.037 792.5 805.987 781.883 804.587 769.05C803.42 756.217 802.02 742.217 800.387 727.05C798.753 711.883 797.12 696.483 795.487 680.85ZM884.603 834.15C883.903 826.217 883.436 816.3 883.203 804.4C882.969 792.267 882.853 779.317 882.853 765.55C882.853 751.783 882.969 738.483 883.203 725.65C883.669 712.583 884.136 701.033 884.603 691C885.069 680.967 885.536 673.733 886.003 669.3C886.703 663.7 888.686 659.5 891.953 656.7C895.219 653.667 898.836 651.567 902.803 650.4C907.003 649.233 910.503 648.65 913.303 648.65C916.336 648.417 917.853 648.3 917.853 648.3C917.853 648.3 919.253 648.533 922.053 649C925.086 649.233 928.353 649.817 931.853 650.75C935.353 651.683 937.803 653.317 939.203 655.65C942.236 660.317 943.636 664.867 943.403 669.3C943.403 673.5 943.169 678.983 942.703 685.75C941.303 703.25 940.486 720.4 940.253 737.2C940.019 754 940.019 769.283 940.253 783.05C940.486 796.817 940.719 807.783 940.953 815.95C941.419 824.117 941.653 828.2 941.653 828.2C941.653 828.2 941.536 829.483 941.303 832.05C941.303 834.383 940.603 837.067 939.203 840.1C937.803 843.133 935.119 845.933 931.153 848.5C927.186 850.833 921.353 852 913.653 852C905.953 852 900.003 851.183 895.803 849.55C891.836 847.683 889.036 845.583 887.403 843.25C886.003 840.683 885.186 838.583 884.953 836.95C884.719 835.083 884.603 834.15 884.603 834.15ZM983.448 829.25C982.514 815.483 981.464 801.133 980.298 786.2C979.131 771.033 977.964 756.567 976.798 742.8C975.864 729.033 975.048 717.367 974.348 707.8C973.648 698 973.064 691.7 972.598 688.9C971.898 683.533 972.131 679.917 973.298 678.05C974.698 675.95 975.398 674.9 975.398 674.9C975.398 674.9 974.581 674.083 972.948 672.45C971.314 670.583 970.498 668.6 970.498 666.5C970.498 662.767 972.714 659.733 977.148 657.4C981.814 655.067 987.064 653.317 992.898 652.15C998.731 650.983 1003.86 650.167 1008.3 649.7C1012.96 649.233 1015.3 649 1015.3 649C1015.3 649 1017.63 648.883 1022.3 648.65C1026.96 648.417 1032.91 648.65 1040.15 649.35C1047.61 650.05 1055.55 651.917 1063.95 654.95C1072.58 657.75 1080.75 662.3 1088.45 668.6C1096.38 674.9 1103.03 683.533 1108.4 694.5C1113.76 705.233 1117.03 719 1118.2 735.8C1119.6 755.633 1118.66 772.317 1115.4 785.85C1112.36 799.383 1107.7 810.467 1101.4 819.1C1095.33 827.5 1088.33 834.033 1080.4 838.7C1072.46 843.367 1064.18 846.633 1055.55 848.5C1047.15 850.133 1039.1 851.183 1031.4 851.65C1023.93 851.883 1017.4 852 1011.8 852C1003.63 852 997.448 850.833 993.248 848.5C989.281 846.167 986.598 843.6 985.198 840.8C984.031 837.767 983.448 835.083 983.448 832.75C983.448 830.417 983.448 829.25 983.448 829.25ZM1020.9 680.5L1036.3 822.25C1036.3 822.25 1037.35 822.133 1039.45 821.9C1041.55 821.667 1044.11 820.617 1047.15 818.75C1050.41 816.883 1053.45 813.5 1056.25 808.6C1059.28 803.7 1061.61 796.817 1063.25 787.95C1064.88 778.85 1065.23 767.067 1064.3 752.6C1063.36 734.4 1061.38 720.283 1058.35 710.25C1055.55 699.983 1052.05 692.633 1047.85 688.2C1043.88 683.767 1039.56 681.2 1034.9 680.5C1030.23 679.8 1025.56 679.8 1020.9 680.5Z" fill="#FAF7F2"/>
<path d="M755.481 1306C756.249 1306 756.761 1306.35 757.017 1307.06L776.601 1367.34C776.857 1368.37 776.505 1368.88 775.545 1368.88H761.145C760.313 1368.88 759.801 1368.53 759.609 1367.82L750.201 1333.65C749.561 1331.28 748.985 1328.91 748.473 1326.54C747.961 1324.18 747.481 1321.81 747.033 1319.44H746.745C746.297 1321.87 745.785 1324.27 745.209 1326.64C744.633 1329.01 744.025 1331.41 743.385 1333.84L734.073 1367.73C733.881 1368.5 733.369 1368.88 732.537 1368.88H718.233C717.209 1368.88 716.857 1368.37 717.177 1367.34L736.857 1307.06C737.049 1306.35 737.561 1306 738.393 1306H755.481Z" fill="#FAF7F2"/>
<path d="M679.004 1302.06C680.012 1302.24 680.27 1302.8 679.777 1303.75L649.643 1359.66C649.269 1360.31 648.704 1360.57 647.947 1360.43L631.119 1357.46C630.363 1357.33 629.92 1356.9 629.79 1356.16L620.499 1293.3C620.451 1292.84 620.549 1292.47 620.794 1292.18C620.965 1291.95 621.302 1291.88 621.806 1291.97L635.987 1294.47C636.807 1294.62 637.25 1295.05 637.317 1295.78L640.831 1331.69C641.061 1334.07 641.26 1336.44 641.427 1338.81C641.594 1341.18 641.735 1343.51 641.85 1345.81L642.039 1345.84C642.944 1343.66 643.88 1341.49 644.847 1339.32C645.814 1337.15 646.813 1334.98 647.843 1332.83L663.204 1300.44C663.527 1299.72 664.098 1299.43 664.917 1299.57L679.004 1302.06ZM660.981 1310.29L656.373 1322.05L636.803 1318.6L636.4 1305.95L660.981 1310.29Z" fill="#FAF7F2"/>
<path d="M587.853 1282.67C588.214 1282.8 588.47 1283.03 588.623 1283.35C588.777 1283.68 588.787 1284.03 588.656 1284.39L566.806 1340.49C566.5 1341.33 565.956 1341.61 565.174 1341.33L550.83 1336.11C550.169 1335.87 549.827 1335.4 549.805 1334.71L546.502 1300L521.66 1324.47C521.14 1324.96 520.55 1325.08 519.888 1324.84L505.635 1319.66C504.793 1319.35 504.525 1318.78 504.832 1317.93L524.246 1260.94C524.377 1260.58 524.607 1260.33 524.935 1260.17C525.263 1260.02 525.577 1260 525.878 1260.11L537.966 1264.51C538.808 1264.82 539.076 1265.39 538.77 1266.23L531.956 1286.64C531.097 1289.18 530.104 1291.82 528.976 1294.54C527.827 1297.32 526.744 1299.93 525.726 1302.35L526.087 1302.48C527.985 1300.45 530.017 1298.33 532.183 1296.12C534.349 1293.91 536.542 1291.81 538.763 1289.83L552.906 1276.79C553.426 1276.3 554.047 1276.18 554.768 1276.45L555.31 1276.64C556.031 1276.91 556.403 1277.38 556.425 1278.07L558.937 1297.27C559.264 1300.12 559.578 1303.09 559.878 1306.2C560.095 1309.34 560.289 1312.27 560.457 1314.99L560.818 1315.12C561.617 1312.55 562.46 1309.86 563.347 1307.05C564.233 1304.24 565.166 1301.58 566.146 1299.08L574.042 1279.07C574.348 1278.23 574.923 1277.96 575.765 1278.27L587.853 1282.67Z" fill="#FAF7F2"/>
<path d="M469.938 1228.99C477.697 1233.47 482.517 1238.69 484.395 1244.65C486.274 1250.61 485.149 1257.17 481.021 1264.32L473.485 1277.37C469.325 1284.58 464.21 1288.83 458.139 1290.13C452.037 1291.48 445.105 1289.92 437.346 1285.44C429.586 1280.96 424.767 1275.74 422.888 1269.78C420.922 1263.84 422.019 1257.27 426.179 1250.06L433.715 1237.01C437.843 1229.86 442.986 1225.62 449.144 1224.3C455.247 1222.95 462.178 1224.51 469.938 1228.99ZM463.026 1240.96C459.645 1239.01 456.623 1238.48 453.959 1239.38C451.241 1240.25 448.889 1242.41 446.905 1245.84L440.425 1257.07C438.441 1260.5 437.753 1263.61 438.359 1266.4C438.911 1269.16 440.877 1271.52 444.258 1273.47C447.583 1275.39 450.606 1275.91 453.324 1275.04C455.988 1274.14 458.311 1271.97 460.295 1268.54L466.775 1257.31C468.759 1253.88 469.476 1250.78 468.924 1248.02C468.318 1245.23 466.351 1242.88 463.026 1240.96Z" fill="#FAF7F2"/>
<path d="M393.978 1175.57C398.391 1179.27 401.566 1182.85 403.505 1186.32C405.353 1189.79 405.944 1193.17 405.277 1196.45C404.561 1199.69 402.637 1202.88 399.504 1206.02C398.789 1206.67 398.113 1206.73 397.476 1206.2L387.621 1197.93C386.935 1197.35 386.884 1196.77 387.467 1196.17C388.874 1194.59 389.408 1192.91 389.07 1191.12C388.642 1189.34 387.276 1187.49 384.971 1185.55C382.667 1183.62 380.753 1182.52 379.23 1182.24C377.658 1181.92 376.337 1182.4 375.267 1183.68C374.815 1184.22 374.526 1184.81 374.401 1185.46C374.235 1186.15 374.306 1186.96 374.614 1187.89C374.881 1188.87 375.393 1190.05 376.151 1191.44L382.779 1204.89C384.383 1208.16 385.36 1211.03 385.712 1213.5C386.023 1216.01 385.794 1218.33 385.025 1220.44C384.215 1222.6 382.904 1224.76 381.094 1226.91C377.466 1231.14 373.219 1233.21 368.351 1233.14C363.484 1233.07 358.158 1230.6 352.373 1225.75C348.058 1222.13 344.953 1218.56 343.055 1215.05C341.117 1211.58 340.415 1208.24 340.951 1205.01C341.396 1201.79 343.189 1198.66 346.329 1195.61C347.078 1194.82 347.771 1194.69 348.408 1195.23L358.262 1203.5C358.605 1203.78 358.793 1204.11 358.824 1204.47C358.766 1204.84 358.547 1205.2 358.169 1205.55C356.961 1206.79 356.55 1208.32 356.937 1210.15C357.275 1211.94 358.474 1213.7 360.533 1215.43C362.396 1216.99 364.06 1217.84 365.527 1217.99C366.952 1218.18 368.158 1217.69 369.145 1216.51C369.639 1215.92 369.944 1215.26 370.062 1214.52C370.138 1213.84 370.042 1213 369.775 1212.03C369.467 1211.1 368.979 1209.94 368.312 1208.54L361.633 1195.3C360.038 1192.12 359.04 1189.28 358.639 1186.77C358.237 1184.26 358.463 1181.9 359.314 1179.69C360.125 1177.53 361.48 1175.37 363.38 1173.2C367.214 1168.73 371.593 1166.6 376.517 1166.81C381.441 1167.01 387.261 1169.93 393.978 1175.57Z" fill="#FAF7F2"/>
<path d="M278.157 1044.74C278.605 1045.52 278.441 1046.13 277.665 1046.58L225.538 1076.68C224.762 1077.12 224.15 1076.96 223.702 1076.18L203.734 1041.6C203.318 1040.88 203.498 1040.29 204.274 1039.85L213.834 1034.33C214.61 1033.88 215.206 1034.01 215.622 1034.74L228.342 1056.77L237.903 1051.25L226.335 1031.21C225.919 1030.49 226.099 1029.91 226.875 1029.46L235.771 1024.32C236.547 1023.87 237.143 1024.01 237.559 1024.73L249.127 1044.77L259.02 1039.06L246.3 1017.02C245.884 1016.3 246.064 1015.72 246.84 1015.27L256.401 1009.75C257.177 1009.3 257.773 1009.44 258.189 1010.16L278.157 1044.74Z" fill="#FAF7F2"/>
<path d="M235.218 961.279C235.524 962.121 235.256 962.695 234.414 963.002L177.852 983.589C177.01 983.895 176.436 983.627 176.13 982.785L170.384 966.999C170.143 966.337 170.269 965.747 170.761 965.227L189.266 945.619C190.644 944.164 192.131 942.636 193.727 941.033C195.323 939.43 196.922 937.929 198.523 936.529C200.103 935.068 201.527 933.835 202.796 932.828L202.697 932.558C201.598 933.094 200.349 933.685 198.949 934.331C197.528 934.916 196.087 935.542 194.628 936.21C193.146 936.817 191.694 937.414 190.273 937.999C188.83 938.525 187.536 938.995 186.394 939.411L164.653 947.324C163.811 947.631 163.248 947.393 162.963 946.611L158.629 934.703C158.323 933.861 158.591 933.287 159.433 932.981L215.994 912.394C216.836 912.087 217.411 912.355 217.717 913.197L223.463 928.984C223.682 929.585 223.556 930.176 223.086 930.756L205.466 949.428C204.149 950.861 202.651 952.36 200.973 953.924C199.273 955.428 197.603 956.921 195.963 958.404C194.263 959.908 192.781 961.264 191.519 962.473L191.617 962.744C192.858 962.224 194.189 961.671 195.611 961.086C197.032 960.5 198.525 959.923 200.089 959.354C201.57 958.747 203.033 958.18 204.476 957.655C205.919 957.13 207.303 956.626 208.626 956.145L229.194 948.658C230.036 948.352 230.61 948.62 230.916 949.462L235.218 961.279Z" fill="#FAF7F2"/>
<path d="M195.152 749.963C195.152 758.475 193.104 765.131 189.008 769.931C184.912 774.667 178.576 777.035 170 777.035H155.312C146.608 777.035 140.208 774.667 136.112 769.931C132.016 765.131 129.968 758.475 129.968 749.963C129.968 743.755 130.928 738.539 132.848 734.315C134.768 730.091 137.488 726.987 141.008 725.003C144.464 723.019 148.56 722.347 153.296 722.987C153.68 723.051 154 723.211 154.256 723.467C154.512 723.659 154.64 723.947 154.64 724.331V737.579C154.64 738.411 154.16 738.827 153.2 738.827C150.32 738.763 148.016 739.595 146.288 741.323C144.496 743.051 143.6 745.867 143.6 749.771C143.6 753.355 144.592 756.171 146.576 758.219C148.496 760.203 151.6 761.195 155.888 761.195H169.232C173.52 761.195 176.656 760.203 178.64 758.219C180.56 756.171 181.52 753.355 181.52 749.771C181.52 745.675 180.592 742.795 178.736 741.131C176.816 739.467 174.544 738.699 171.92 738.827C170.96 738.827 170.48 738.411 170.48 737.579V724.427C170.48 723.595 170.928 723.115 171.824 722.987C176.56 722.539 180.688 723.339 184.208 725.387C187.664 727.371 190.352 730.443 192.272 734.603C194.192 738.763 195.152 743.883 195.152 749.963Z" fill="#FAF7F2"/>
<path d="M197.939 679.003C197.761 680.011 197.195 680.269 196.243 679.776L140.338 649.643C139.689 649.268 139.431 648.703 139.565 647.947L142.532 631.118C142.665 630.362 143.101 629.919 143.839 629.789L206.695 620.499C207.158 620.45 207.531 620.549 207.813 620.793C208.043 620.964 208.113 621.301 208.024 621.805L205.524 635.987C205.379 636.806 204.944 637.249 204.217 637.316L168.309 640.83C165.929 641.06 163.554 641.259 161.185 641.426C158.816 641.593 156.484 641.734 154.19 641.85L154.156 642.039C156.336 642.943 158.511 643.879 160.68 644.846C162.849 645.814 165.012 646.812 167.17 647.843L199.555 663.204C200.278 663.526 200.567 664.097 200.422 664.916L197.939 679.003ZM189.711 660.981L177.949 656.372L181.399 636.802L194.045 636.4L189.711 660.981Z" fill="#FAF7F2"/>
<path d="M217.334 587.851C217.202 588.212 216.973 588.469 216.645 588.622C216.316 588.775 215.972 588.786 215.611 588.655L159.509 566.805C158.667 566.498 158.388 565.954 158.673 565.172L163.893 550.829C164.134 550.167 164.599 549.826 165.288 549.804L199.999 546.501L175.532 521.658C175.04 521.139 174.915 520.548 175.155 519.887L180.343 505.633C180.65 504.791 181.224 504.524 182.066 504.83L239.055 524.244C239.415 524.376 239.672 524.605 239.825 524.933C239.978 525.262 240 525.576 239.891 525.877L235.491 537.965C235.184 538.807 234.61 539.075 233.768 538.768L213.364 531.955C210.816 531.095 208.181 530.102 205.458 528.975C202.676 527.826 200.073 526.743 197.651 525.725L197.52 526.086C199.553 527.984 201.674 530.016 203.883 532.181C206.091 534.347 208.187 536.541 210.172 538.761L223.208 552.905C223.7 553.425 223.815 554.045 223.552 554.767L223.355 555.308C223.093 556.03 222.617 556.402 221.928 556.423L202.727 558.935C199.883 559.263 196.909 559.576 193.803 559.876C190.659 560.094 187.728 560.287 185.01 560.456L184.879 560.817C187.448 561.616 190.138 562.459 192.949 563.345C195.759 564.232 198.416 565.165 200.92 566.144L220.93 574.04C221.772 574.347 222.04 574.921 221.733 575.763L217.334 587.851Z" fill="#FAF7F2"/>
<path d="M265.198 477.703C264.75 478.479 264.138 478.643 263.362 478.195L211.234 448.099C210.458 447.651 210.294 447.039 210.742 446.263L217.318 434.873C217.766 434.097 218.378 433.933 219.154 434.381L271.282 464.477C272.058 464.925 272.222 465.537 271.774 466.313L265.198 477.703Z" fill="#FAF7F2"/>
<path d="M309.636 409.824C309.06 410.51 308.429 410.565 307.743 409.99L261.633 371.299C260.947 370.723 260.892 370.092 261.467 369.405L272.266 356.536C272.719 355.997 273.293 355.81 273.989 355.976L300.223 362.199C302.172 362.664 304.239 363.188 306.425 363.769C308.611 364.35 310.71 364.984 312.724 365.671C314.779 366.309 316.559 366.925 318.064 367.52L318.25 367.3C317.236 366.616 316.099 365.83 314.841 364.94C313.623 364.002 312.36 363.068 311.052 362.137C309.785 361.158 308.543 360.199 307.325 359.261C306.148 358.273 305.094 357.389 304.163 356.607L286.44 341.736C285.753 341.16 285.677 340.553 286.212 339.916L294.358 330.208C294.934 329.522 295.565 329.467 296.251 330.043L342.361 368.733C343.047 369.309 343.102 369.941 342.527 370.627L331.728 383.496C331.316 383.987 330.742 384.173 330.005 384.056L305.024 378.133C303.124 377.708 301.078 377.161 298.884 376.489C296.731 375.769 294.603 375.07 292.499 374.39C290.347 373.67 288.431 373.066 286.753 372.576L286.568 372.797C287.638 373.612 288.783 374.488 290 375.427C291.218 376.365 292.465 377.369 293.739 378.439C295.006 379.418 296.228 380.401 297.404 381.389C298.581 382.376 299.709 383.322 300.787 384.227L317.554 398.297C318.241 398.873 318.296 399.504 317.72 400.19L309.636 409.824Z" fill="#FAF7F2"/>
<path d="M395.684 323.003C388.82 328.762 382.265 331.505 376.02 331.231C369.775 330.957 363.999 327.658 358.692 321.334L349.004 309.788C343.656 303.414 341.41 297.153 342.266 291.005C343.081 284.807 346.92 278.828 353.784 273.069C360.648 267.31 367.202 264.567 373.447 264.841C379.7 265.024 385.501 268.303 390.849 274.676L400.537 286.222C405.844 292.547 408.065 298.828 407.201 305.067C406.387 311.265 402.547 317.243 395.684 323.003ZM386.798 312.413C389.788 309.904 391.316 307.243 391.38 304.432C391.493 301.58 390.274 298.635 387.724 295.595L379.393 285.667C376.843 282.627 374.153 280.916 371.325 280.532C368.546 280.107 365.661 281.149 362.67 283.659C359.728 286.127 358.201 288.787 358.088 291.639C358.023 294.45 359.267 297.375 361.817 300.415L370.148 310.343C372.698 313.383 375.363 315.115 378.143 315.54C380.971 315.924 383.856 314.881 386.798 312.413Z" fill="#FAF7F2"/>
<path d="M557.924 213.106C554.255 214.441 551.059 214.549 548.336 213.429C545.591 212.249 543.682 210.185 542.609 207.238L541.559 204.351C540.42 201.224 540.545 198.386 541.933 195.838C543.3 193.229 545.817 191.257 549.486 189.922C553.214 188.565 556.41 188.457 559.073 189.599C561.775 190.659 563.695 192.753 564.833 195.88L565.884 198.767C566.956 201.714 566.82 204.522 565.476 207.19C564.17 209.777 561.653 211.749 557.924 213.106Z" fill="#FAF7F2"/>
<path d="M744.519 194C743.751 194 743.239 193.648 742.983 192.944L723.399 132.656C723.143 131.632 723.495 131.12 724.455 131.12H738.855C739.687 131.12 740.199 131.472 740.391 132.176L749.799 166.352C750.439 168.72 751.015 171.088 751.527 173.456C752.039 175.824 752.519 178.192 752.967 180.56H753.255C753.703 178.128 754.215 175.728 754.791 173.36C755.367 170.992 755.975 168.592 756.615 166.16L765.927 132.272C766.119 131.504 766.631 131.12 767.463 131.12H781.767C782.791 131.12 783.143 131.632 782.823 132.656L763.143 192.944C762.951 193.648 762.439 194 761.607 194H744.519Z" fill="#FAF7F2"/>
<path d="M820.996 197.942C819.988 197.764 819.73 197.199 820.223 196.246L850.357 140.341C850.731 139.692 851.296 139.435 852.053 139.568L868.881 142.535C869.637 142.669 870.08 143.104 870.21 143.842L879.501 206.698C879.549 207.162 879.451 207.534 879.206 207.816C879.035 208.046 878.698 208.116 878.194 208.028L864.013 205.527C863.193 205.382 862.75 204.947 862.683 204.22L859.169 168.313C858.939 165.932 858.74 163.558 858.573 161.189C858.406 158.82 858.265 156.488 858.15 154.193L857.961 154.16C857.056 156.34 856.12 158.514 855.153 160.683C854.186 162.852 853.187 165.016 852.157 167.174L836.796 199.558C836.473 200.281 835.902 200.57 835.083 200.426L820.996 197.942ZM839.019 189.715L843.627 177.952L863.197 181.403L863.6 194.049L839.019 189.715Z" fill="#FAF7F2"/>
<path d="M912.147 217.334C911.786 217.203 911.53 216.973 911.377 216.645C911.223 216.317 911.213 215.972 911.344 215.612L933.194 159.509C933.5 158.667 934.044 158.389 934.826 158.673L949.17 163.894C949.831 164.135 950.173 164.599 950.195 165.288L953.498 200L978.34 175.533C978.86 175.041 979.45 174.915 980.112 175.156L994.365 180.344C995.207 180.65 995.475 181.224 995.168 182.066L975.754 239.055C975.623 239.416 975.393 239.673 975.065 239.826C974.737 239.979 974.423 240.001 974.122 239.891L962.034 235.491C961.192 235.185 960.924 234.611 961.23 233.769L968.044 213.365C968.903 210.817 969.896 208.182 971.024 205.459C972.173 202.676 973.256 200.074 974.274 197.652L973.913 197.52C972.015 199.554 969.983 201.675 967.817 203.883C965.651 206.092 963.458 208.188 961.237 210.172L947.094 223.209C946.574 223.701 945.953 223.815 945.232 223.553L944.69 223.356C943.969 223.093 943.597 222.617 943.575 221.928L941.063 202.727C940.736 199.884 940.422 196.909 940.122 193.803C939.905 190.659 939.711 187.728 939.543 185.011L939.182 184.879C938.383 187.449 937.54 190.139 936.653 192.949C935.767 195.759 934.834 198.417 933.854 200.921L925.958 220.931C925.652 221.773 925.077 222.04 924.235 221.734L912.147 217.334Z" fill="#FAF7F2"/>
<path d="M1030.06 271.011C1022.3 266.531 1017.48 261.31 1015.6 255.348C1013.73 249.386 1014.85 242.83 1018.98 235.68L1026.51 222.627C1030.67 215.422 1035.79 211.17 1041.86 209.871C1047.96 208.517 1054.89 210.08 1062.65 214.56C1070.41 219.04 1075.23 224.261 1077.11 230.223C1079.08 236.162 1077.98 242.734 1073.82 249.939L1066.28 262.992C1062.16 270.142 1057.01 274.378 1050.86 275.7C1044.75 277.054 1037.82 275.491 1030.06 271.011ZM1036.97 259.039C1040.36 260.991 1043.38 261.517 1046.04 260.616C1048.76 259.747 1051.11 257.594 1053.09 254.158L1059.57 242.934C1061.56 239.497 1062.25 236.385 1061.64 233.596C1061.09 230.839 1059.12 228.484 1055.74 226.532C1052.42 224.612 1049.39 224.087 1046.68 224.956C1044.01 225.857 1041.69 228.025 1039.7 231.462L1033.22 242.686C1031.24 246.122 1030.52 249.219 1031.08 251.976C1031.68 254.765 1033.65 257.119 1036.97 259.039Z" fill="#FAF7F2"/>
<path d="M1106.02 324.433C1101.61 320.73 1098.43 317.147 1096.5 313.682C1094.65 310.21 1094.06 306.832 1094.72 303.548C1095.44 300.305 1097.36 297.116 1100.5 293.98C1101.21 293.327 1101.89 293.268 1102.52 293.802L1112.38 302.071C1113.07 302.647 1113.12 303.233 1112.53 303.829C1111.13 305.406 1110.59 307.088 1110.93 308.876C1111.36 310.656 1112.72 312.512 1115.03 314.446C1117.33 316.379 1119.25 317.484 1120.77 317.759C1122.34 318.076 1123.66 317.597 1124.73 316.322C1125.19 315.783 1125.47 315.19 1125.6 314.543C1125.77 313.847 1125.69 313.036 1125.39 312.108C1125.12 311.132 1124.61 309.951 1123.85 308.563L1117.22 295.106C1115.62 291.839 1114.64 288.972 1114.29 286.504C1113.98 283.988 1114.21 281.673 1114.97 279.562C1115.79 277.401 1117.1 275.242 1118.91 273.085C1122.53 268.861 1126.78 266.786 1131.65 266.86C1136.52 266.934 1141.84 269.398 1147.63 274.252C1151.94 277.872 1155.05 281.439 1156.94 284.953C1158.88 288.417 1159.58 291.763 1159.05 294.99C1158.6 298.209 1156.81 301.341 1153.67 304.387C1152.92 305.179 1152.23 305.308 1151.59 304.773L1141.74 296.504C1141.39 296.217 1141.21 295.892 1141.18 295.532C1141.23 295.163 1141.45 294.803 1141.83 294.452C1143.04 293.211 1143.45 291.676 1143.06 289.847C1142.73 288.059 1141.53 286.302 1139.47 284.574C1137.6 283.011 1135.94 282.157 1134.47 282.013C1133.05 281.819 1131.84 282.311 1130.85 283.488C1130.36 284.076 1130.06 284.739 1129.94 285.476C1129.86 286.164 1129.96 286.996 1130.22 287.972C1130.53 288.899 1131.02 290.06 1131.69 291.455L1138.37 304.704C1139.96 307.88 1140.96 310.723 1141.36 313.232C1141.76 315.741 1141.54 318.1 1140.69 320.31C1139.88 322.47 1138.52 324.633 1136.62 326.798C1132.79 331.268 1128.41 333.4 1123.48 333.194C1118.56 332.989 1112.74 330.069 1106.02 324.433Z" fill="#FAF7F2"/>
<path d="M1221.84 455.255C1221.39 454.479 1221.56 453.867 1222.33 453.419L1274.46 423.323C1275.24 422.875 1275.85 423.039 1276.3 423.815L1296.27 458.4C1296.68 459.121 1296.5 459.705 1295.73 460.153L1286.17 465.673C1285.39 466.121 1284.79 465.985 1284.38 465.264L1271.66 443.233L1262.1 448.753L1273.66 468.789C1274.08 469.51 1273.9 470.094 1273.12 470.542L1264.23 475.678C1263.45 476.126 1262.86 475.99 1262.44 475.269L1250.87 455.233L1240.98 460.945L1253.7 482.976C1254.12 483.697 1253.94 484.281 1253.16 484.729L1243.6 490.249C1242.82 490.697 1242.23 490.561 1241.81 489.84L1221.84 455.255Z" fill="#FAF7F2"/>
<path d="M1264.78 538.721C1264.48 537.879 1264.74 537.305 1265.59 536.998L1322.15 516.411C1322.99 516.105 1323.56 516.373 1323.87 517.215L1329.62 533.001C1329.86 533.663 1329.73 534.253 1329.24 534.773L1310.73 554.381C1309.36 555.836 1307.87 557.364 1306.27 558.967C1304.68 560.57 1303.08 562.071 1301.48 563.471C1299.9 564.932 1298.47 566.165 1297.2 567.172L1297.3 567.442C1298.4 566.906 1299.65 566.315 1301.05 565.669C1302.47 565.084 1303.91 564.458 1305.37 563.79C1306.85 563.183 1308.31 562.586 1309.73 562.001C1311.17 561.475 1312.46 561.005 1313.61 560.589L1335.35 552.676C1336.19 552.369 1336.75 552.607 1337.04 553.389L1341.37 565.297C1341.68 566.139 1341.41 566.713 1340.57 567.019L1284.01 587.606C1283.16 587.913 1282.59 587.645 1282.28 586.803L1276.54 571.016C1276.32 570.415 1276.44 569.824 1276.91 569.244L1294.53 550.572C1295.85 549.139 1297.35 547.64 1299.03 546.076C1300.73 544.572 1302.4 543.079 1304.04 541.596C1305.74 540.092 1307.22 538.736 1308.48 537.527L1308.38 537.256C1307.14 537.776 1305.81 538.329 1304.39 538.914C1302.97 539.5 1301.47 540.077 1299.91 540.646C1298.43 541.253 1296.97 541.82 1295.52 542.345C1294.08 542.87 1292.7 543.374 1291.37 543.855L1270.81 551.342C1269.96 551.648 1269.39 551.38 1269.08 550.538L1264.78 538.721Z" fill="#FAF7F2"/>
<path d="M1304.85 750.037C1304.85 741.525 1306.9 734.869 1310.99 730.069C1315.09 725.333 1321.42 722.965 1330 722.965H1344.69C1353.39 722.965 1359.79 725.333 1363.89 730.069C1367.98 734.869 1370.03 741.525 1370.03 750.037C1370.03 756.245 1369.07 761.461 1367.15 765.685C1365.23 769.909 1362.51 773.013 1358.99 774.997C1355.54 776.981 1351.44 777.653 1346.7 777.013C1346.32 776.949 1346 776.789 1345.74 776.533C1345.49 776.341 1345.36 776.053 1345.36 775.669V762.421C1345.36 761.589 1345.84 761.173 1346.8 761.173C1349.68 761.237 1351.98 760.405 1353.71 758.677C1355.5 756.949 1356.4 754.133 1356.4 750.229C1356.4 746.645 1355.41 743.829 1353.42 741.781C1351.5 739.797 1348.4 738.805 1344.11 738.805H1330.77C1326.48 738.805 1323.34 739.797 1321.36 741.781C1319.44 743.829 1318.48 746.645 1318.48 750.229C1318.48 754.325 1319.41 757.205 1321.26 758.869C1323.18 760.533 1325.46 761.301 1328.08 761.173C1329.04 761.173 1329.52 761.589 1329.52 762.421V775.573C1329.52 776.405 1329.07 776.885 1328.18 777.013C1323.44 777.461 1319.31 776.661 1315.79 774.613C1312.34 772.629 1309.65 769.557 1307.73 765.397C1305.81 761.237 1304.85 756.117 1304.85 750.037Z" fill="#FAF7F2"/>
<path d="M1302.06 820.997C1302.24 819.989 1302.8 819.731 1303.76 820.224L1359.66 850.357C1360.31 850.732 1360.57 851.297 1360.43 852.053L1357.47 868.882C1357.33 869.638 1356.9 870.081 1356.16 870.211L1293.3 879.501C1292.84 879.55 1292.47 879.451 1292.19 879.207C1291.96 879.036 1291.89 878.699 1291.98 878.195L1294.48 864.013C1294.62 863.194 1295.06 862.751 1295.78 862.684L1331.69 859.17C1334.07 858.94 1336.45 858.741 1338.81 858.574C1341.18 858.407 1343.52 858.266 1345.81 858.15L1345.84 857.961C1343.66 857.057 1341.49 856.121 1339.32 855.154C1337.15 854.186 1334.99 853.188 1332.83 852.157L1300.44 836.796C1299.72 836.474 1299.43 835.903 1299.58 835.084L1302.06 820.997ZM1310.29 839.019L1322.05 843.628L1318.6 863.198L1305.95 863.6L1310.29 839.019Z" fill="#FAF7F2"/>
<path d="M1282.67 912.149C1282.8 911.788 1283.03 911.531 1283.36 911.378C1283.68 911.225 1284.03 911.214 1284.39 911.345L1340.49 933.195C1341.33 933.502 1341.61 934.046 1341.33 934.828L1336.11 949.171C1335.87 949.833 1335.4 950.174 1334.71 950.196L1300 953.499L1324.47 978.342C1324.96 978.861 1325.09 979.452 1324.84 980.113L1319.66 994.367C1319.35 995.209 1318.78 995.476 1317.93 995.17L1260.95 975.756C1260.58 975.624 1260.33 975.395 1260.17 975.067C1260.02 974.738 1260 974.424 1260.11 974.123L1264.51 962.035C1264.82 961.193 1265.39 960.925 1266.23 961.232L1286.64 968.045C1289.18 968.905 1291.82 969.898 1294.54 971.025C1297.32 972.174 1299.93 973.257 1302.35 974.275L1302.48 973.914C1300.45 972.016 1298.33 969.984 1296.12 967.819C1293.91 965.653 1291.81 963.459 1289.83 961.239L1276.79 947.095C1276.3 946.575 1276.19 945.955 1276.45 945.233L1276.64 944.692C1276.91 943.97 1277.38 943.598 1278.07 943.577L1297.27 941.065C1300.12 940.737 1303.09 940.424 1306.2 940.124C1309.34 939.906 1312.27 939.713 1314.99 939.544L1315.12 939.183C1312.55 938.384 1309.86 937.541 1307.05 936.655C1304.24 935.768 1301.58 934.835 1299.08 933.856L1279.07 925.96C1278.23 925.653 1277.96 925.079 1278.27 924.237L1282.67 912.149Z" fill="#FAF7F2"/>
<path d="M1234.8 1022.3C1235.25 1021.52 1235.86 1021.36 1236.64 1021.8L1288.77 1051.9C1289.54 1052.35 1289.71 1052.96 1289.26 1053.74L1282.68 1065.13C1282.23 1065.9 1281.62 1066.07 1280.85 1065.62L1228.72 1035.52C1227.94 1035.07 1227.78 1034.46 1228.23 1033.69L1234.8 1022.3Z" fill="#FAF7F2"/>
<path d="M1190.36 1090.18C1190.94 1089.49 1191.57 1089.43 1192.26 1090.01L1238.37 1128.7C1239.05 1129.28 1239.11 1129.91 1238.53 1130.59L1227.73 1143.46C1227.28 1144 1226.71 1144.19 1226.01 1144.02L1199.78 1137.8C1197.83 1137.34 1195.76 1136.81 1193.57 1136.23C1191.39 1135.65 1189.29 1135.02 1187.28 1134.33C1185.22 1133.69 1183.44 1133.07 1181.94 1132.48L1181.75 1132.7C1182.76 1133.38 1183.9 1134.17 1185.16 1135.06C1186.38 1136 1187.64 1136.93 1188.95 1137.86C1190.21 1138.84 1191.46 1139.8 1192.67 1140.74C1193.85 1141.73 1194.91 1142.61 1195.84 1143.39L1213.56 1158.26C1214.25 1158.84 1214.32 1159.45 1213.79 1160.08L1205.64 1169.79C1205.07 1170.48 1204.43 1170.53 1203.75 1169.96L1157.64 1131.27C1156.95 1130.69 1156.9 1130.06 1157.47 1129.37L1168.27 1116.5C1168.68 1116.01 1169.26 1115.83 1169.99 1115.94L1194.98 1121.87C1196.88 1122.29 1198.92 1122.84 1201.12 1123.51C1203.27 1124.23 1205.4 1124.93 1207.5 1125.61C1209.65 1126.33 1211.57 1126.93 1213.25 1127.42L1213.43 1127.2C1212.36 1126.39 1211.22 1125.51 1210 1124.57C1208.78 1123.63 1207.54 1122.63 1206.26 1121.56C1204.99 1120.58 1203.77 1119.6 1202.6 1118.61C1201.42 1117.62 1200.29 1116.68 1199.21 1115.77L1182.45 1101.7C1181.76 1101.13 1181.7 1100.5 1182.28 1099.81L1190.36 1090.18Z" fill="#FAF7F2"/>
<path d="M1104.32 1177C1111.18 1171.24 1117.73 1168.5 1123.98 1168.77C1130.22 1169.04 1136 1172.34 1141.31 1178.67L1151 1190.21C1156.34 1196.59 1158.59 1202.85 1157.73 1209C1156.92 1215.19 1153.08 1221.17 1146.22 1226.93C1139.35 1232.69 1132.8 1235.43 1126.55 1235.16C1120.3 1234.98 1114.5 1231.7 1109.15 1225.32L1099.46 1213.78C1094.16 1207.45 1091.93 1201.17 1092.8 1194.93C1093.61 1188.74 1097.45 1182.76 1104.32 1177ZM1113.2 1187.59C1110.21 1190.1 1108.68 1192.76 1108.62 1195.57C1108.51 1198.42 1109.73 1201.37 1112.28 1204.41L1120.61 1214.33C1123.16 1217.37 1125.85 1219.08 1128.68 1219.47C1131.45 1219.89 1134.34 1218.85 1137.33 1216.34C1140.27 1213.87 1141.8 1211.21 1141.91 1208.36C1141.98 1205.55 1140.73 1202.62 1138.18 1199.59L1129.85 1189.66C1127.3 1186.62 1124.64 1184.89 1121.86 1184.46C1119.03 1184.08 1116.14 1185.12 1113.2 1187.59Z" fill="#FAF7F2"/>
<path d="M942.077 1286.89C945.745 1285.56 948.941 1285.45 951.664 1286.57C954.41 1287.75 956.319 1289.81 957.391 1292.76L958.442 1295.65C959.58 1298.78 959.455 1301.61 958.067 1304.16C956.701 1306.77 954.183 1308.74 950.515 1310.08C946.786 1311.43 943.59 1311.54 940.927 1310.4C938.226 1309.34 936.306 1307.25 935.167 1304.12L934.117 1301.23C933.044 1298.29 933.18 1295.48 934.524 1292.81C935.83 1290.22 938.348 1288.25 942.077 1286.89Z" fill="#FAF7F2"/>
</g>
<rect x="25" y="25" width="1450" height="1450" rx="725" stroke="url(#paint0_linear_2_452)" stroke-width="50"/>
<defs>
<linearGradient id="paint0_linear_2_452" x1="-1.43185e-05" y1="3553.98" x2="2418.23" y2="3105.88" gradientUnits="userSpaceOnUse">
<stop stop-color="#FAF7F2"/>
<stop offset="0.333333" stop-color="#8F93FF"/>
<stop offset="0.666667" stop-color="#FF8D85"/>
<stop offset="1" stop-color="#94FF9B"/>
</linearGradient>
<clipPath id="clip0_2_452">
<rect width="1500" height="1500" rx="750" fill="white"/>
</clipPath>
</defs>
</svg>
